# xmcd
#
# Track frame offsets:
#  150
#  18247
#  35585
#  46870
#  66390
#  75533
#  97525
#  108054
#  123426
#  142607
#  153691
#  169995
#
# Disc length: 2464 seconds
#
# Revision: 0
# Processed by: cddbd v1.5.1PL2 Copyright (c) Steve Scherf et al.
# Submitted via: Collectorz.com_Music_Collector 6.11
#
DISCID=8a099e0c
DTITLE=Mitra - All Gods Kill
DYEAR=2006
DGENRE=
TTITLE0=Dead To Rights
TTITLE1=Your New God
TTITLE2=Things Are About To Get Ugly
TTITLE3=Crucifixed
TTITLE4=Medicate Me
TTITLE5=War Horse
TTITLE6=Will Kill For Free
TTITLE7=Violence is Golden
TTITLE8=Grudge
TTITLE9=The Cleaner
TTITLE10=SRB
TTITLE11=Let 'Em Bleed
EXTD=
EXTT0=
EXTT1=
EXTT2=
EXTT3=
EXTT4=
EXTT5=
EXTT6=
EXTT7=
EXTT8=
EXTT9=
EXTT10=
EXTT11=
PLAYORDER=
